<?xml version="1.0" encoding="utf-8"?>
<!-- Generator: Adobe Illustrator 25.0.1, SVG Export Plug-In . SVG Version: 6.00 Build 0)  -->
<svg version="1.1" xmlns="http://www.w3.org/2000/svg" xmlns:xlink="http://www.w3.org/1999/xlink" x="0px" y="0px"
	 viewBox="0 0 640 480" style="enable-background:new 0 0 640 480;" xml:space="preserve">
<g id="BG">
</g>
<g id="Art">
	<g>
		<g>
			<circle cx="349.55" cy="269.55" r="9.75"/>
			<polygon points="358.69,220.2 280.7,220.2 280.7,225.07 307.51,225.07 307.51,278.69 312.38,278.69 312.38,225.07 317.26,225.07 
				317.26,278.69 322.13,278.69 322.13,225.07 327.01,225.07 327.01,278.69 331.88,278.69 331.88,225.07 358.69,225.07 			"/>
			<rect x="280.7" y="210.45" width="78" height="4.87"/>
			<rect x="280.7" y="200.7" width="78" height="4.87"/>
		</g>
		<g>
			<path id="_xAE__2_" d="M365.09,208.74c2.24,0,4.03-1.79,4.03-4.03c0-2.22-1.79-4.01-4.01-4.01c-2.26,0-4.03,1.79-4.03,4.01
				C361.07,206.95,362.86,208.74,365.09,208.74z M365.09,208c-1.81,0-3.22-1.46-3.22-3.29c0-1.81,1.41-3.27,3.24-3.27
				c1.77,0,3.24,1.46,3.24,3.27C368.34,206.54,366.88,208,365.09,208z M364.45,207v-1.77h0.53l1.07,1.77h0.93l-1.14-1.88
				c0.59-0.16,1.07-0.55,1.07-1.34c0-0.45-0.19-0.83-0.53-1.05c-0.33-0.21-0.74-0.26-1.19-0.26h-1.57V207H364.45z M365.12,204.54
				h-0.67v-1.38h0.67c0.6,0,0.98,0.17,0.98,0.67C366.1,204.35,365.72,204.54,365.12,204.54z"/>
		</g>
	</g>
</g>
</svg>
