<svg xmlns="http://www.w3.org/2000/svg" viewBox="0 0 157.94 31.922">
  <defs>
    <style>
      .cls-1 {
        fill: #000;
      }
    </style>
  </defs>
  <g id="Logo" transform="translate(0 -1)">
    <path id="Fill_1" data-name="Fill 1" class="cls-1" d="M9.937,0V1.988H5.961V14.161H3.976V1.988H0V0Z" transform="translate(46.665 11.152)"/>
    <g id="Group_47" data-name="Group 47" transform="translate(0 0.193)">
      <path id="Fill_2" data-name="Fill 2" class="cls-1" d="M8.435,7.267v6.894H6.45V7.267A1.854,1.854,0,0,0,4.589,5.4H3.845A1.868,1.868,0,0,0,1.985,7.267v6.894H0V0H1.985V4.265a3.651,3.651,0,0,1,2.357-.849h.248A3.841,3.841,0,0,1,8.435,7.267" transform="translate(58.695 10.959)"/>
      <path id="Fill_4" data-name="Fill 4" class="cls-1" d="M4.589,10.931H3.846A3.853,3.853,0,0,1,0,7.08V3.851A3.853,3.853,0,0,1,3.846,0h.743A3.853,3.853,0,0,1,8.435,3.851V7.08A3.853,3.853,0,0,1,4.589,10.931ZM3.846,1.987A1.865,1.865,0,0,0,1.985,3.851V7.08A1.865,1.865,0,0,0,3.846,8.944h.743A1.865,1.865,0,0,0,6.45,7.08V3.851A1.865,1.865,0,0,0,4.589,1.987Z" transform="translate(69.426 14.375)"/>
      <path id="Fill_6" data-name="Fill 6" class="cls-1" d="M1.985,0V6.894A1.854,1.854,0,0,0,3.845,8.758h.744A1.854,1.854,0,0,0,6.45,6.894V0H8.435V6.894a3.841,3.841,0,0,1-3.845,3.851H3.845A3.841,3.841,0,0,1,0,6.894V0Z" transform="translate(80.184 14.561)"/>
      <path id="Fill_8" data-name="Fill 8" class="cls-1" d="M4.61,14.534H3.824A3.825,3.825,0,0,1,.1,11.635l1.9-.559a1.884,1.884,0,0,0,1.819,1.47H4.61a1.854,1.854,0,0,0,1.84-1.863V9.441a3.667,3.667,0,0,1-2.357.849H3.845A3.852,3.852,0,0,1,0,6.439V3.851A3.852,3.852,0,0,1,3.845,0h.248A3.761,3.761,0,0,1,6.45.828V.186H8.435v10.5a3.844,3.844,0,0,1-1.114,2.725A3.789,3.789,0,0,1,4.61,14.534ZM3.845,1.987a1.864,1.864,0,0,0-1.86,1.864V6.439A1.887,1.887,0,0,0,3.845,8.3h.744A1.865,1.865,0,0,0,6.45,6.439V3.851A1.865,1.865,0,0,0,4.589,1.987Z" transform="translate(90.826 14.375)"/>
      <path id="Fill_10" data-name="Fill 10" class="cls-1" d="M8.434,7.267v6.894H6.45V7.267A1.854,1.854,0,0,0,4.589,5.4H3.845A1.868,1.868,0,0,0,1.984,7.267v6.894H0V0H1.984V4.265a3.651,3.651,0,0,1,2.357-.849h.248A3.841,3.841,0,0,1,8.434,7.267" transform="translate(101.833 10.959)"/>
      <path id="Fill_12" data-name="Fill 12" class="cls-1" d="M1.9,11.056a1.885,1.885,0,0,0,1.84,1.491H5.127a1.881,1.881,0,0,0,1.861-1.863A2.352,2.352,0,0,0,5.209,8.426L3.39,7.743C1.7,7.081.289,5.963.289,3.851A3.841,3.841,0,0,1,4.135,0h.971A3.855,3.855,0,0,1,8.827,2.9L6.9,3.458a1.822,1.822,0,0,0-1.8-1.47H4.135A1.854,1.854,0,0,0,2.274,3.851c0,.807.29,1.429,1.881,2.05l1.819.7a4.323,4.323,0,0,1,3,4.079,3.854,3.854,0,0,1-3.845,3.851H3.742A3.879,3.879,0,0,1,0,11.615Z" transform="translate(120.057 10.772)"/>
      <path id="Fill_14" data-name="Fill 14" class="cls-1" d="M1.984,14.348H0V.186H1.984V.849A3.667,3.667,0,0,1,4.342,0h.247A3.853,3.853,0,0,1,8.435,3.851V7.08a3.853,3.853,0,0,1-3.846,3.851H4.342a3.666,3.666,0,0,1-2.357-.849v4.264ZM3.845,1.987a1.887,1.887,0,0,0-1.86,1.864V7.08a1.864,1.864,0,0,0,1.86,1.864h.744A1.864,1.864,0,0,0,6.449,7.08V3.851a1.864,1.864,0,0,0-1.86-1.864Z" transform="translate(131.214 14.375)"/>
      <path id="Fill_16" data-name="Fill 16" class="cls-1" d="M4.589,10.931H3.845A3.852,3.852,0,0,1,0,7.08V3.851A3.852,3.852,0,0,1,3.845,0h.744A3.853,3.853,0,0,1,8.435,3.851V7.08A3.853,3.853,0,0,1,4.589,10.931ZM3.845,1.987a1.864,1.864,0,0,0-1.86,1.864V7.08a1.864,1.864,0,0,0,1.86,1.864h.744A1.865,1.865,0,0,0,6.45,7.08V3.851A1.865,1.865,0,0,0,4.589,1.987Z" transform="translate(141.823 14.375)"/>
      <path id="Fill_28" data-name="Fill 28" class="cls-1" d="M4.87,13.6a3.026,3.026,0,0,1-3.023-3.028V4.844H0V2.857H1.846V0H3.831V2.857h2.35V4.844H3.831v5.73a1.039,1.039,0,0,0,1.039,1.04" transform="translate(111.994 11.704)"/>
      <path id="Fill_29" data-name="Fill 29" class="cls-1" d="M9.937,0V1.988H5.961V14.161H3.976V1.988H0V0Z" transform="translate(46.665 10.959)"/>
      <g id="Group_82" data-name="Group 82" transform="translate(0 0.807)">
        <path id="Fill_18" data-name="Fill 18" class="cls-1" d="M0,3.961A3.955,3.955,0,1,1,3.955,7.922,3.958,3.958,0,0,1,0,3.961" transform="translate(23 24)"/>
        <path id="Fill_21" data-name="Fill 21" class="cls-1" d="M0,21.786H1.978V0H0Z" transform="translate(19 10)"/>
        <path id="Fill_23" data-name="Fill 23" class="cls-1" d="M0,21.786H1.978V0H0Z" transform="translate(15 10)"/>
        <path id="Fill_24" data-name="Fill 24" class="cls-1" d="M0,21.786H1.978V0H0Z" transform="translate(11 10)"/>
        <path id="Fill_25" data-name="Fill 25" class="cls-1" d="M0,1.981H31.148V0H0Z" transform="translate(0 8)"/>
        <path id="Fill_26" data-name="Fill 26" class="cls-1" d="M0,1.98H31.148V0H0Z" transform="translate(0 4)"/>
        <path id="Fill_27" data-name="Fill 27" class="cls-1" d="M0,1.98H31.148V0H0Z"/>
        <path id="Fill_38" data-name="Fill 38" class="cls-1" d="M0,3.961A3.955,3.955,0,1,1,3.955,7.922,3.958,3.958,0,0,1,0,3.961" transform="translate(23 24)"/>
        <path id="Fill_39" data-name="Fill 39" class="cls-1" d="M0,21.786H1.978V0H0Z" transform="translate(19 10)"/>
        <path id="Fill_40" data-name="Fill 40" class="cls-1" d="M0,21.786H1.978V0H0Z" transform="translate(15 10)"/>
        <path id="Fill_41" data-name="Fill 41" class="cls-1" d="M0,21.786H1.978V0H0Z" transform="translate(11 10)"/>
        <path id="Fill_42" data-name="Fill 42" class="cls-1" d="M0,1.981H31.148V0H0Z" transform="translate(0 8)"/>
        <path id="Fill_43" data-name="Fill 43" class="cls-1" d="M0,1.98H31.148V0H0Z" transform="translate(0 4)"/>
        <path id="Fill_44" data-name="Fill 44" class="cls-1" d="M0,1.98H31.148V0H0Z"/>
      </g>
      <path id="Fill_30" data-name="Fill 30" class="cls-1" d="M8.435,7.267v6.894H6.45V7.267A1.854,1.854,0,0,0,4.589,5.4H3.845A1.868,1.868,0,0,0,1.985,7.267v6.894H0V0H1.985V4.265a3.651,3.651,0,0,1,2.357-.849h.248A3.841,3.841,0,0,1,8.435,7.267" transform="translate(58.695 10.959)"/>
      <path id="Fill_31" data-name="Fill 31" class="cls-1" d="M4.589,10.931H3.846A3.853,3.853,0,0,1,0,7.08V3.851A3.853,3.853,0,0,1,3.846,0h.743A3.853,3.853,0,0,1,8.435,3.851V7.08A3.853,3.853,0,0,1,4.589,10.931ZM3.846,1.987A1.865,1.865,0,0,0,1.985,3.851V7.08A1.865,1.865,0,0,0,3.846,8.944h.743A1.865,1.865,0,0,0,6.45,7.08V3.851A1.865,1.865,0,0,0,4.589,1.987Z" transform="translate(69.426 14.375)"/>
      <path id="Fill_32" data-name="Fill 32" class="cls-1" d="M1.985,0V6.894A1.854,1.854,0,0,0,3.845,8.758h.744A1.854,1.854,0,0,0,6.45,6.894V0H8.435V6.894a3.841,3.841,0,0,1-3.845,3.851H3.845A3.841,3.841,0,0,1,0,6.894V0Z" transform="translate(80.184 14.561)"/>
      <path id="Fill_33" data-name="Fill 33" class="cls-1" d="M4.61,14.534H3.824A3.825,3.825,0,0,1,.1,11.635l1.9-.559a1.884,1.884,0,0,0,1.819,1.47H4.61a1.854,1.854,0,0,0,1.84-1.863V9.441a3.667,3.667,0,0,1-2.357.849H3.845A3.852,3.852,0,0,1,0,6.439V3.851A3.852,3.852,0,0,1,3.845,0h.248A3.761,3.761,0,0,1,6.45.828V.186H8.435v10.5a3.844,3.844,0,0,1-1.114,2.725A3.789,3.789,0,0,1,4.61,14.534ZM3.845,1.987a1.864,1.864,0,0,0-1.86,1.864V6.439A1.887,1.887,0,0,0,3.845,8.3h.744A1.865,1.865,0,0,0,6.45,6.439V3.851A1.865,1.865,0,0,0,4.589,1.987Z" transform="translate(90.826 14.375)"/>
      <path id="Fill_34" data-name="Fill 34" class="cls-1" d="M8.434,7.267v6.894H6.45V7.267A1.854,1.854,0,0,0,4.589,5.4H3.845A1.868,1.868,0,0,0,1.984,7.267v6.894H0V0H1.984V4.265a3.651,3.651,0,0,1,2.357-.849h.248A3.841,3.841,0,0,1,8.434,7.267" transform="translate(101.833 10.959)"/>
      <path id="Fill_35" data-name="Fill 35" class="cls-1" d="M1.9,11.056a1.885,1.885,0,0,0,1.84,1.491H5.127a1.881,1.881,0,0,0,1.861-1.863A2.352,2.352,0,0,0,5.209,8.426L3.39,7.743C1.7,7.081.289,5.963.289,3.851A3.841,3.841,0,0,1,4.135,0h.971A3.855,3.855,0,0,1,8.827,2.9L6.9,3.458a1.822,1.822,0,0,0-1.8-1.47H4.135A1.854,1.854,0,0,0,2.274,3.851c0,.807.29,1.429,1.881,2.05l1.819.7a4.323,4.323,0,0,1,3,4.079,3.854,3.854,0,0,1-3.845,3.851H3.742A3.879,3.879,0,0,1,0,11.615Z" transform="translate(120.057 10.772)"/>
      <path id="Fill_36" data-name="Fill 36" class="cls-1" d="M1.984,14.348H0V.186H1.984V.849A3.667,3.667,0,0,1,4.342,0h.247A3.853,3.853,0,0,1,8.435,3.851V7.08a3.853,3.853,0,0,1-3.846,3.851H4.342a3.666,3.666,0,0,1-2.357-.849v4.264ZM3.845,1.987a1.887,1.887,0,0,0-1.86,1.864V7.08a1.864,1.864,0,0,0,1.86,1.864h.744A1.864,1.864,0,0,0,6.449,7.08V3.851a1.864,1.864,0,0,0-1.86-1.864Z" transform="translate(131.214 14.375)"/>
      <path id="Fill_37" data-name="Fill 37" class="cls-1" d="M4.589,10.931H3.845A3.852,3.852,0,0,1,0,7.08V3.851A3.852,3.852,0,0,1,3.845,0h.744A3.853,3.853,0,0,1,8.435,3.851V7.08A3.853,3.853,0,0,1,4.589,10.931ZM3.845,1.987a1.864,1.864,0,0,0-1.86,1.864V7.08a1.864,1.864,0,0,0,1.86,1.864h.744A1.865,1.865,0,0,0,6.45,7.08V3.851A1.865,1.865,0,0,0,4.589,1.987Z" transform="translate(141.823 14.375)"/>
      <path id="Fill_45" data-name="Fill 45" class="cls-1" d="M6.181,4.845V2.857H3.831V0H1.846V2.857H0V4.845H1.846v5.73A3.026,3.026,0,0,0,4.87,13.6H6.181V11.615H4.87a1.039,1.039,0,0,1-1.039-1.04V4.845Z" transform="translate(111.993 11.704)"/>
      <path id="Fill_46" data-name="Fill 46" class="cls-1" d="M6.181,4.845V2.857H3.831V0H1.846V2.857H0V4.845H1.846v5.73A3.026,3.026,0,0,0,4.87,13.6H6.181V11.615H4.87a1.039,1.039,0,0,1-1.039-1.04V4.845Z" transform="translate(151.759 11.704)"/>
    </g>
  </g>
</svg>
