<?xml version="1.0" encoding="utf-8"?>
<!-- Generator: Adobe Illustrator 23.0.2, SVG Export Plug-In . SVG Version: 6.00 Build 0)  -->
<svg version="1.1" id="Layer_1" xmlns="http://www.w3.org/2000/svg" xmlns:xlink="http://www.w3.org/1999/xlink" x="0px" y="0px"
	 viewBox="0 0 392.35 78" style="enable-background:new 0 0 392.35 78;" xml:space="preserve">
<style type="text/css">
	.st0{fill:#FFFFFF;}
</style>
<g>
	<path class="st0" d="M392.35,35.3v-4.93h-5.84v-7.09h-4.93v7.09H377v4.93h4.59v14.21c0,4.15,3.36,7.51,7.51,7.51h3.26v-4.93h-3.26
		c-1.43,0-2.58-1.15-2.58-2.58V35.3H392.35z"/>
	<path class="st0" d="M363.72,29.91c5.29,0,9.55,4.26,9.55,9.55v8.01c0,5.24-4.26,9.55-9.55,9.55h-1.85c-5.24,0-9.55-4.31-9.55-9.55
		v-8.01c0-5.29,4.31-9.55,9.55-9.55H363.72z M357.24,39.46v8.01c0,2.57,2.11,4.62,4.62,4.62h1.85c2.57,0,4.62-2.05,4.62-4.62v-8.01
		c0-2.57-2.05-4.62-4.62-4.62h-1.85C359.35,34.84,357.24,36.89,357.24,39.46z"/>
	<path class="st0" d="M346.91,39.46v8.01c0,5.29-4.26,9.55-9.55,9.55h-0.62c-2.21,0-4.26-0.77-5.85-2.11V65.5h-4.93V30.37h4.93v1.64
		c1.59-1.34,3.65-2.11,5.85-2.11h0.62C342.65,29.91,346.91,34.17,346.91,39.46z M341.98,39.46c0-2.52-2.05-4.62-4.62-4.62h-1.85
		c-2.52,0-4.62,2.11-4.62,4.62v8.01c0,2.57,2.11,4.62,4.62,4.62h1.85c2.57,0,4.62-2.05,4.62-4.62V39.46z"/>
	<path class="st0" d="M302.97,48.4c0.46,2.11,2.31,3.7,4.57,3.7h3.44c2.52,0,4.62-2.11,4.62-4.62c0-2.88-1.75-4.57-4.42-5.6
		l-4.52-1.69c-4.21-1.64-7.7-4.42-7.7-9.66c0-5.29,4.26-9.55,9.55-9.55h2.41c4.42,0,8.17,3.03,9.24,7.19l-4.78,1.39
		c-0.41-2.11-2.26-3.65-4.47-3.65h-2.41c-2.57,0-4.62,2.05-4.62,4.62c0,2,0.72,3.54,4.67,5.08l4.52,1.75
		c4.57,1.85,7.45,5.34,7.45,10.12c0,5.29-4.31,9.55-9.55,9.55h-3.44c-4.47,0-8.22-3.08-9.3-7.24L302.97,48.4z"/>
	<path class="st0" d="M293.57,35.3v-4.93h-5.84v-7.09h-4.93v7.09h-4.59v4.93h4.59v14.21c0,4.15,3.36,7.51,7.51,7.51h3.26v-4.93
		h-3.26c-1.43,0-2.58-1.15-2.58-2.58V35.3H293.57z"/>
	<path class="st0" d="M273.92,39.46v17.1h-4.93v-17.1c0-2.57-2.05-4.62-4.62-4.62h-1.85c-2.52,0-4.62,2.05-4.62,4.62v17.1h-4.93
		V21.43h4.93v10.58c1.59-1.34,3.65-2.11,5.85-2.11h0.62C269.66,29.91,273.92,34.17,273.92,39.46z"/>
	<path class="st0" d="M246.58,30.37v26.04c0,5.29-4.21,9.55-9.5,9.55h-1.95c-4.47,0-8.22-3.08-9.24-7.19l4.72-1.39
		c0.46,2.05,2.31,3.65,4.52,3.65h1.95c2.52,0,4.57-2.11,4.57-4.62v-3.08c-1.59,1.34-3.65,2.11-5.85,2.11h-0.62
		c-5.24,0-9.55-4.26-9.55-9.55v-6.42c0-5.29,4.31-9.55,9.55-9.55h0.62c2.21,0,4.26,0.77,5.85,2.05v-1.59H246.58z M241.65,45.88
		v-6.42c0-2.57-2.05-4.62-4.62-4.62h-1.85c-2.52,0-4.62,2.05-4.62,4.62v6.42c0,2.52,2.11,4.62,4.62,4.62h1.85
		C239.6,50.5,241.65,48.4,241.65,45.88z"/>
	<path class="st0" d="M204.12,30.37v17.1c0,2.57,2.05,4.62,4.62,4.62h1.85c2.57,0,4.62-2.05,4.62-4.62v-17.1h4.93v17.1
		c0,5.29-4.26,9.55-9.55,9.55h-1.85c-5.29,0-9.55-4.26-9.55-9.55v-17.1H204.12z"/>
	<path class="st0" d="M183.87,29.91c5.29,0,9.55,4.26,9.55,9.55v8.01c0,5.24-4.26,9.55-9.55,9.55h-1.85c-5.24,0-9.55-4.31-9.55-9.55
		v-8.01c0-5.29,4.31-9.55,9.55-9.55H183.87z M177.4,39.46v8.01c0,2.57,2.11,4.62,4.62,4.62h1.85c2.57,0,4.62-2.05,4.62-4.62v-8.01
		c0-2.57-2.05-4.62-4.62-4.62h-1.85C179.5,34.84,177.4,36.89,177.4,39.46z"/>
	<path class="st0" d="M166.76,39.46v17.1h-4.93v-17.1c0-2.57-2.05-4.62-4.62-4.62h-1.85c-2.52,0-4.62,2.05-4.62,4.62v17.1h-4.93
		V21.43h4.93v10.58c1.59-1.34,3.65-2.11,5.85-2.11h0.62C162.5,29.91,166.76,34.17,166.76,39.46z"/>
	<path class="st0" d="M140.61,21.43v4.93h-9.88v30.2h-4.93v-30.2h-9.88v-4.93H140.61z"/>
	<circle class="st0" cx="68.85" cy="68.85" r="9.75"/>
	<polygon class="st0" points="78,19.5 0,19.5 0,24.37 26.81,24.37 26.81,78 31.69,78 31.69,24.37 36.56,24.37 36.56,78 41.43,78 
		41.43,24.37 46.31,24.37 46.31,78 51.18,78 51.18,24.37 78,24.37 	"/>
	<rect y="9.75" class="st0" width="78" height="4.87"/>
	<rect class="st0" width="78" height="4.87"/>
</g>
</svg>
